<svg id="Layer_1" data-name="Layer 1" xmlns="http://www.w3.org/2000/svg" viewBox="0 0 512 512"><title>pause-button-flat</title><path d="M0,256C0,114.62,114.62,0,256,0S512,114.63,512,256,397.37,512,256,512,0,397.38,0,256Z" fill="#ff5242"/><path d="M293.58,306.85a11.77,11.77,0,0,1-11.78,11.79h0A11.78,11.78,0,0,1,270,306.85V205.14a11.8,11.8,0,0,1,11.78-11.8h0a11.79,11.79,0,0,1,11.78,11.8Z" fill="#fff"/><path d="M242,306.85a11.77,11.77,0,0,1-11.78,11.79h0a11.79,11.79,0,0,1-11.8-11.79V205.14a11.81,11.81,0,0,1,11.8-11.8h0A11.79,11.79,0,0,1,242,205.14Z" fill="#fff"/><path d="M256,113.72A142.28,142.28,0,1,0,398.29,256,142.28,142.28,0,0,0,256,113.72Zm0,256.53A114.24,114.24,0,1,1,370.23,256,114.25,114.25,0,0,1,256,370.25Z" fill="#fff"/></svg>