<?xml version="1.0" standalone="no"?>
<!DOCTYPE svg PUBLIC "-//W3C//DTD SVG 20010904//EN"
 "http://www.w3.org/TR/2001/REC-SVG-20010904/DTD/svg10.dtd">
<svg version="1.0" xmlns="http://www.w3.org/2000/svg"
 width="256.000000pt" height="256.000000pt" viewBox="0 0 256.000000 256.000000"
 preserveAspectRatio="xMidYMid meet">
<metadata>
Created by potrace 1.10, written by Peter Selinger 2001-2011
</metadata>
<g transform="translate(0.000000,256.000000) scale(0.100000,-0.100000)"
fill="#ff0000" stroke="none">
<path d="M1144 2336 c-17 -7 -181 -160 -365 -339 l-334 -326 -178 -1 c-194 0
-223 -7 -245 -55 -9 -18 -12 -119 -12 -345 l0 -318 31 -31 31 -31 185 0 185 0
316 -309 c175 -170 334 -323 356 -340 43 -34 80 -39 114 -15 54 38 52 -3 51
1001 0 510 -4 961 -8 1001 -5 52 -12 78 -26 91 -27 27 -64 33 -101 17z"/>
<path d="M1893 2243 c-33 -6 -63 -50 -63 -92 0 -44 24 -69 113 -122 77 -45
197 -156 251 -233 248 -349 217 -814 -75 -1120 -53 -55 -115 -109 -159 -136
-107 -66 -130 -90 -130 -138 0 -33 6 -45 31 -66 37 -32 67 -33 122 -5 195 100
387 307 477 517 67 155 85 245 85 427 0 190 -17 276 -87 440 -76 177 -244 370
-409 471 -86 53 -117 64 -156 57z"/>
<path d="M1671 1968 c-43 -23 -64 -62 -57 -103 6 -28 17 -43 53 -68 197 -137
287 -282 300 -486 13 -207 -83 -398 -266 -526 -76 -53 -99 -93 -81 -140 10
-27 56 -65 79 -65 55 0 200 106 283 206 57 69 130 213 152 299 55 223 5 484
-126 655 -72 95 -227 220 -288 234 -14 4 -36 1 -49 -6z"/>
<path d="M1414 1644 c-78 -39 -68 -140 18 -174 91 -36 141 -103 141 -189 0
-86 -40 -145 -130 -190 -76 -38 -103 -100 -65 -147 19 -25 53 -44 76 -44 40 0
130 45 179 90 165 151 173 405 19 559 -83 83 -182 123 -238 95z"/>
</g>
</svg>
