<svg width="28" height="28" viewBox="0 0 28 28" fill="none" xmlns="http://www.w3.org/2000/svg">
<path d="M2.51002 0.395004L0.39502 2.51L6.93502 9.05L6.50002 9.5H0.500019V18.5H6.50002L14 26V16.115L20.27 22.385C19.295 23.12 18.2 23.705 17 24.05V27.14C19.01 26.69 20.855 25.76 22.415 24.515L25.49 27.59L27.605 25.475L2.51002 0.395004ZM11 18.755L7.74502 15.5H3.50002V12.5H7.74502L9.06502 11.18L11 13.115V18.755ZM24.5 14C24.5 15.23 24.275 16.415 23.885 17.51L26.18 19.805C27.02 18.05 27.5 16.085 27.5 14C27.5 7.58 23.015 2.21 17 0.845004V3.935C21.335 5.225 24.5 9.245 24.5 14ZM14 2L11.18 4.82L14 7.64V2ZM20.75 14C20.75 11.345 19.22 9.065 17 7.955V10.64L20.72 14.36C20.735 14.24 20.75 14.12 20.75 14Z" fill="#FF0000"/>
</svg>
